<svg xmlns="http://www.w3.org/2000/svg" viewBox="0 0 16 16">
  <!-- Pixel art skull favicon -->
  <rect width="16" height="16" fill="#0a0a0a"/>
  
  <!-- Skull outline/top -->
  <rect x="4" y="1" width="8" height="1" fill="#e0e0e0"/>
  <rect x="3" y="2" width="1" height="1" fill="#e0e0e0"/>
  <rect x="12" y="2" width="1" height="1" fill="#e0e0e0"/>
  <rect x="2" y="3" width="1" height="4" fill="#e0e0e0"/>
  <rect x="13" y="3" width="1" height="4" fill="#e0e0e0"/>
  
  <!-- Skull fill -->
  <rect x="4" y="2" width="8" height="1" fill="#e0e0e0"/>
  <rect x="3" y="3" width="10" height="4" fill="#e0e0e0"/>
  
  <!-- Eye sockets -->
  <rect x="4" y="4" width="2" height="2" fill="#0a0a0a"/>
  <rect x="10" y="4" width="2" height="2" fill="#0a0a0a"/>
  
  <!-- Nose -->
  <rect x="7" y="5" width="2" height="2" fill="#0a0a0a"/>
  
  <!-- Jaw area -->
  <rect x="3" y="7" width="10" height="1" fill="#e0e0e0"/>
  <rect x="4" y="8" width="8" height="1" fill="#e0e0e0"/>
  
  <!-- Teeth -->
  <rect x="4" y="9" width="1" height="2" fill="#e0e0e0"/>
  <rect x="6" y="9" width="1" height="2" fill="#e0e0e0"/>
  <rect x="9" y="9" width="1" height="2" fill="#e0e0e0"/>
  <rect x="11" y="9" width="1" height="2" fill="#e0e0e0"/>
  
  <!-- Teeth gaps -->
  <rect x="5" y="9" width="1" height="2" fill="#0a0a0a"/>
  <rect x="7" y="9" width="2" height="2" fill="#0a0a0a"/>
  <rect x="10" y="9" width="1" height="2" fill="#0a0a0a"/>
  
  <!-- Jaw bottom -->
  <rect x="5" y="11" width="6" height="1" fill="#e0e0e0"/>
</svg>
